<svg width="35" height="36" viewBox="0 0 35 36" fill="none" xmlns="http://www.w3.org/2000/svg">
<path fill-rule="evenodd" clip-rule="evenodd" d="M7.35621 2.40024C7.26505 1.24641 6.56672 0 5.47869 0C3.79069 0 3.91669 2 4.91669 2C5.20142 2 5.40508 2.16214 5.55075 2.41718C5.09209 2.45335 4.67176 2.51256 4.3007 2.58701C3.80724 2.68561 3.3489 2.86147 2.93571 3.09947C2.63123 2.33423 2.05948 1.72 1.29569 1.72C-0.392305 1.72 -0.266306 3.72 0.733694 3.72C1.11342 3.72 1.34896 4.00839 1.49505 4.4209C0.816153 5.39214 0.519644 6.62833 0.770689 7.88199C1.2587 10.32 3.63069 11.902 6.06669 11.412C6.22869 11.386 8.27069 11.106 9.49069 12.581C9.76656 13.1332 10.1886 14.1554 10.624 15.2933C9.87181 15.6866 9.07056 16.3975 9.19669 17.002C9.34775 17.7093 10.7179 18.0384 11.6036 17.9966C11.8108 18.6048 11.9906 19.164 12.1207 19.615C12.2066 19.9128 12.2887 20.1966 12.366 20.4626C11.7154 20.8704 11.124 21.4764 11.2337 22.002C11.3593 22.5901 12.3277 22.9167 13.1597 22.9861C14.4194 26.4567 16.1841 29.1379 18.4306 30.9997C18.4213 31.0192 18.4123 31.0389 18.4037 31.059C18.0777 31.823 18.0387 33.622 18.7997 33.949C19.4399 34.2209 20.4398 33.3698 20.9377 32.6382C21.1284 32.7336 21.3218 32.8246 21.5177 32.911C22.2502 33.2345 22.9748 33.4725 23.6806 33.642C23.7491 34.5052 24.3991 36.0028 25.1837 36C25.8652 35.9967 26.4369 34.8628 26.6163 33.9994C26.6596 33.9998 26.7027 34 26.7457 34C27.7766 34 28.7099 33.8837 29.4964 33.7286C29.9182 34.4164 30.585 35.0775 31.1407 34.947C31.7396 34.8058 32.0431 33.7863 32.082 32.941C34.3037 31.9079 35.2942 29.2805 34.2957 27.034C33.2967 24.784 30.6797 23.759 28.4237 24.72C28.2907 24.77 26.6307 25.369 25.0807 24.648C23.2297 23.787 22.0857 21.339 21.4527 19.439C21.325 19.0577 21.121 18.351 20.8666 17.4692L20.8664 17.4686L20.7667 17.123C18.9007 10.652 17.9347 8.83801 16.7837 7.30301C14.1228 3.75299 10.3462 2.57106 7.35621 2.40024Z" fill="#744EAA"/>
</svg>
